<?xml version="1.0" encoding="utf-8"?>
<!-- Generator: Adobe Illustrator 22.1.0, SVG Export Plug-In . SVG Version: 6.00 Build 0)  -->
<svg version="1.1" id="Layer_1" xmlns="http://www.w3.org/2000/svg" xmlns:xlink="http://www.w3.org/1999/xlink" x="0px" y="0px"
	 viewBox="0 0 50 50" style="enable-background:new 0 0 50 50;" xml:space="preserve" fill="#B4B4B4">
<g>
	<path d="M25.1,22.2l3,2.6c0.1,0.1,0.2,0.2,0.2,0.4s-0.1,0.3-0.2,0.4c-0.2,0.2-0.5,0.2-0.7,0l-2.3-2l-2.4,2.1
		c-0.2,0.2-0.5,0.2-0.7,0c-0.1-0.1-0.2-0.2-0.2-0.4c0-0.1,0.1-0.3,0.2-0.4L25.1,22.2z M22.2,25.3L22.2,25.3L22.2,25.3L22.2,25.3z"/>
	<path d="M25,18c3.6,0,6.5,2.9,6.5,6.5S28.6,31,25,31s-6.5-2.9-6.5-6.5S21.4,18,25,18z M25,30c3,0,5.5-2.5,5.5-5.5S28,19,25,19
		s-5.5,2.5-5.5,5.5S22,30,25,30z"/>
</g>
</svg>
