<?xml version="1.0" encoding="utf-8"?>
<!-- Generator: Adobe Illustrator 22.1.0, SVG Export Plug-In . SVG Version: 6.00 Build 0)  -->
<svg version="1.1" id="Layer_1" xmlns="http://www.w3.org/2000/svg" xmlns:xlink="http://www.w3.org/1999/xlink" x="0px" y="0px"
	 viewBox="0 0 50 50" style="enable-background:new 0 0 50 50;" xml:space="preserve" fill="#B4B4B4">
<g>
	<path d="M24.9,26.8l-3-2.6c-0.1-0.1-0.2-0.2-0.2-0.4s0.1-0.3,0.2-0.4c0.2-0.2,0.5-0.2,0.7,0l2.3,2l2.4-2.1c0.2-0.2,0.5-0.2,0.7,0
		c0.1,0.1,0.2,0.2,0.2,0.4c0,0.1-0.1,0.3-0.2,0.4L24.9,26.8z M27.8,23.7L27.8,23.7L27.8,23.7L27.8,23.7z"/>
	<path d="M25,31c-3.6,0-6.5-2.9-6.5-6.5S21.4,18,25,18s6.5,2.9,6.5,6.5S28.6,31,25,31z M25,19c-3,0-5.5,2.5-5.5,5.5
		c0,3,2.5,5.5,5.5,5.5c3,0,5.5-2.5,5.5-5.5C30.5,21.5,28,19,25,19z"/>
</g>
</svg>
