<?xml version="1.0" encoding="utf-8"?>
<!-- Generator: Adobe Illustrator 22.1.0, SVG Export Plug-In . SVG Version: 6.00 Build 0)  -->
<svg version="1.1" id="Layer_1" xmlns="http://www.w3.org/2000/svg" xmlns:xlink="http://www.w3.org/1999/xlink" x="0px" y="0px"
	 viewBox="0 0 16 16" style="enable-background:new 0 0 16 16;" xml:space="preserve" fill="#586D87">
<path d="M15.3,16l-5.4-5.4c-0.5,0.5-1.1,0.8-1.8,1S6.7,12,6,12c-1.1,0-2.1-0.3-3-0.8C2.1,10.7,1.3,9.9,0.8,9S0,7.1,0,6
	s0.3-2.1,0.8-3S2.1,1.3,3,0.8S4.9,0,6,0s2.1,0.3,3,0.8s1.6,1.3,2.2,2.2S12,4.9,12,6c0,0.7-0.1,1.4-0.4,2.1c-0.2,0.7-0.6,1.3-1,1.8
	l5.4,5.4L15.3,16z M1,6c0,0.9,0.2,1.7,0.7,2.5s1.1,1.4,1.8,1.8C4.3,10.8,5.1,11,6,11c0.9,0,1.7-0.2,2.5-0.7c0.8-0.4,1.4-1.1,1.8-1.8
	C10.8,7.7,11,6.9,11,6c0-0.9-0.2-1.7-0.7-2.5C9.9,2.7,9.3,2.1,8.5,1.7S6.9,1,6,1C5.1,1,4.3,1.2,3.5,1.7S2.1,2.7,1.7,3.5S1,5.1,1,6z"
	/>
</svg>
